<svg width="400" height="400" viewBox="0 0 400 400" fill="none" xmlns="http://www.w3.org/2000/svg">
<g clip-path="url(#clip0_101_11)">
<rect width="400" height="400" fill="white"/>
<rect width="400" height="400" rx="56" fill="#FF5C12"/>
<path fill-rule="evenodd" clip-rule="evenodd" d="M55 205.93V220.901L112.403 249.189V234.052L73.1969 215.028C71.8735 214.284 70.3847 213.705 68.9785 213.208C70.3019 212.712 71.7081 212.133 73.1142 211.471L112.32 192.447V177.724L55 205.93Z" fill="white"/>
<path fill-rule="evenodd" clip-rule="evenodd" d="M344.497 205.93V220.901L287.093 249.271V234.135L326.3 215.111C327.623 214.366 329.112 213.787 330.518 213.291C329.195 212.795 327.788 212.216 326.382 211.554L287.176 192.53V177.724L344.497 205.93Z" fill="white"/>
<path fill-rule="evenodd" clip-rule="evenodd" d="M238.375 259.197C262.279 259.197 282.379 240.256 283.206 216.848C283.619 204.772 279.236 193.358 270.882 184.755C262.528 176.07 251.279 171.273 239.202 171.273H239.12C234.488 153.572 218.441 141 199.583 141C183.454 141 168.896 150.429 162.279 165.152C149.789 165.4 138.127 170.529 129.359 179.544C120.426 188.808 115.711 201.05 116.208 213.953C117.118 239.015 138.623 259.28 164.264 259.28H238.375V259.197ZM199.5 154.482C211.659 154.482 221.998 162.257 225.472 173.424C207.937 179.214 195.199 195.756 195.199 215.194V216.435H208.764V215.194C208.764 200.554 219.103 188.312 232.916 185.417L234.405 185.169C235.232 185.003 235.977 184.921 236.721 184.921C237.548 184.838 238.375 184.755 239.12 184.755C247.474 184.755 255.249 188.064 260.956 194.019C266.746 199.975 269.724 207.915 269.476 216.269C268.897 232.398 254.918 245.55 238.21 245.55H235.232H164.016C145.654 245.55 130.186 231.075 129.607 213.291C129.276 204.11 132.585 195.425 138.954 188.808C145.323 182.191 153.842 178.552 163.106 178.552C167.986 178.552 172.287 175.657 174.19 171.19C178.574 161.099 188.499 154.482 199.5 154.482Z" fill="white"/>
</g>
<defs>
<clipPath id="clip0_101_11">
<rect width="400" height="400" fill="white"/>
</clipPath>
</defs>
</svg>
